<svg id="Lager_1" data-name="Lager 1" xmlns="http://www.w3.org/2000/svg" viewBox="0 0 27.68 23.44"><defs><style>.cls-1{fill:#001b48;}</style></defs><title>active_blue</title><path class="cls-1" d="M42,22v5.29A4.8,4.8,0,0,1,37.22,32H23.37a4.8,4.8,0,0,1-4.79-4.79V13.41a4.8,4.8,0,0,1,4.79-4.79H37.22A4.58,4.58,0,0,1,39.17,9a0.5,0.5,0,0,1,.3.38,0.52,0.52,0,0,1-.15.48l-0.82.82a0.53,0.53,0,0,1-.38.17l-0.15,0a3,3,0,0,0-.75-0.1H23.37a2.67,2.67,0,0,0-2.66,2.66V27.26a2.67,2.67,0,0,0,2.66,2.66H37.22a2.67,2.67,0,0,0,2.66-2.66V23A0.5,0.5,0,0,1,40,22.66L41.1,21.6a0.53,0.53,0,0,1,.38-0.17,0.45,0.45,0,0,1,.2,0A0.48,0.48,0,0,1,42,22Zm3.84-8.14L32.31,27.37a1.33,1.33,0,0,1-1.9,0l-7.16-7.16a1.33,1.33,0,0,1,0-1.9l1.83-1.83a1.33,1.33,0,0,1,1.9,0l4.38,4.38L42.13,10.09a1.33,1.33,0,0,1,1.9,0l1.83,1.83A1.33,1.33,0,0,1,45.86,13.82Z" transform="translate(-18.58 -8.61)"/></svg>
