<svg id="Lager_1" data-name="Lager 1" xmlns="http://www.w3.org/2000/svg" viewBox="0 0 27.61 27.61"><defs><style>.cls-1{fill:#018abd;}</style></defs><title>add_blue</title><path class="cls-1" d="M39.59,17.18V34.44a5.18,5.18,0,0,1-5.18,5.18H17.16A5.18,5.18,0,0,1,12,34.44V17.18A5.19,5.19,0,0,1,17.16,12H34.42A5.19,5.19,0,0,1,39.59,17.18ZM35,27v-2.3a1.17,1.17,0,0,0-1.15-1.15H28.09V17.76a1.17,1.17,0,0,0-1.15-1.15h-2.3a1.17,1.17,0,0,0-1.15,1.15v5.75H17.74a1.17,1.17,0,0,0-1.15,1.15V27a1.16,1.16,0,0,0,1.15,1.15h5.75v5.75A1.17,1.17,0,0,0,24.64,35h2.3a1.17,1.17,0,0,0,1.15-1.15V28.11h5.75A1.16,1.16,0,0,0,35,27Z" transform="translate(-11.99 -12.01)"/></svg>