<svg id="Lager_1" data-name="Lager 1" xmlns="http://www.w3.org/2000/svg" viewBox="0 0 34.92 27.56"><defs><style>.cls-1{fill:#001b48;}</style></defs><title>edit_blue</title><path class="cls-1" d="M35.55,20.72v3.72a5.65,5.65,0,0,1-5.64,5.64H13.63A5.65,5.65,0,0,1,8,24.44V8.15a5.43,5.43,0,0,1,1.65-4,5.43,5.43,0,0,1,4-1.65H29.91A5.39,5.39,0,0,1,32.2,3a0.6,0.6,0,0,1,.35.45,0.61,0.61,0,0,1-.18.57l-1,1a0.57,0.57,0,0,1-.63.16A3.5,3.5,0,0,0,29.91,5H13.63a3.14,3.14,0,0,0-3.13,3.13V24.44a3.14,3.14,0,0,0,3.13,3.13H29.91A3.14,3.14,0,0,0,33,24.44V22a0.59,0.59,0,0,1,.18-0.43l1.25-1.25a0.59,0.59,0,0,1,.69-0.14A0.57,0.57,0,0,1,35.55,20.72ZM33.67,6.27l5.64,5.64L26.16,25.07H20.52V19.43Zm-8.3,16.91,2.27-2.27-3-3L22.4,20.21v1.1h1.88v1.88h1.1ZM34,9.09a0.4,0.4,0,0,0-.65,0L26.49,16a0.44,0.44,0,1,0,.63.63L34,9.74A0.4,0.4,0,0,0,34,9.09Zm8.38-.23-1.8,1.8L34.92,5l1.8-1.8a1.89,1.89,0,0,1,2.66,0l3,3A1.89,1.89,0,0,1,42.36,8.86Z" transform="translate(-7.99 -2.51)"/></svg>
