<svg id="Lager_1" data-name="Lager 1" xmlns="http://www.w3.org/2000/svg" viewBox="0 0 29.41 27.74"><defs><style>.cls-1{fill:#001b48;}</style></defs><title>timeline_blue</title><path class="cls-1" d="M22.64,9.4a1.25,1.25,0,0,1,.09-0.17A6,6,0,0,1,28.2,6.61c5.09,0.22,10.19.08,15.29,0.09,1.56,0,2.08.53,2.08,2.08,0,0.5,0,1,0,1.49,0,1.43-.56,2-2,2H32.67c-2,0-4-.06-6,0a3.08,3.08,0,0,1-2.39-.94c-0.6-.57-1.25-1.08-1.88-1.61Z" transform="translate(-16.16 -4.31)"/><path class="cls-1" d="M22.63,18.14A1.24,1.24,0,0,1,22.72,18a6,6,0,0,1,5.47-2.62c5.09,0.22,10.19.08,15.29,0.09,1.56,0,2.08.53,2.08,2.08,0,0.5,0,1,0,1.49,0,1.43-.56,2-2,2H32.66c-2,0-4-.06-6,0a3.08,3.08,0,0,1-2.39-.93c-0.6-.57-1.25-1.08-1.88-1.61Z" transform="translate(-16.16 -4.31)"/><path class="cls-1" d="M22.54,27a3.6,3.6,0,0,1,.17-0.33,6,6,0,0,1,5.47-2.62c5.09,0.23,10.19.08,15.29,0.09,1.56,0,2.08.53,2.08,2.08,0,0.6,0,1.19,0,1.79a1.57,1.57,0,0,1-1.68,1.68q-8.94,0-17.87,0a2,2,0,0,1-1.15-.47C24,28.54,23.31,27.78,22.54,27Z" transform="translate(-16.16 -4.31)"/><path class="cls-1" d="M18.16,11.43a2,2,0,1,1,2-1.93A2,2,0,0,1,18.16,11.43Z" transform="translate(-16.16 -4.31)"/><path class="cls-1" d="M20.14,18.17a2,2,0,1,1-1.94-2A2,2,0,0,1,20.14,18.17Z" transform="translate(-16.16 -4.31)"/><path class="cls-1" d="M20.12,26.89a2,2,0,1,1-2-2A2,2,0,0,1,20.12,26.89Z" transform="translate(-16.16 -4.31)"/><path class="cls-1" d="M18.08,12.13a1.82,1.82,0,0,1,.46.68c0.06,0.81,0,1.63,0,2.49-0.52.19-.82,0.16-0.8-0.49,0-.82,0-1.63,0-2.45Z" transform="translate(-16.16 -4.31)"/><path class="cls-1" d="M18.23,24.23a1.83,1.83,0,0,1-.45-0.68c-0.06-.81,0-1.63,0-2.49,0.53-.19.82-0.16,0.8,0.49,0,0.82,0,1.63,0,2.45Z" transform="translate(-16.16 -4.31)"/><path class="cls-1" d="M18.29,6.76a1.65,1.65,0,0,1-.5-0.58,4.94,4.94,0,0,1,0-1.37,1.4,1.4,0,0,1,.34-0.5,1.45,1.45,0,0,1,.41.54,16.63,16.63,0,0,1,0,1.66Z" transform="translate(-16.16 -4.31)"/><path class="cls-1" d="M18.53,29.84c0,0.55,0,1.11,0,1.66a1.48,1.48,0,0,1-.4.55,1.37,1.37,0,0,1-.35-0.49,5,5,0,0,1,0-1.37,1.68,1.68,0,0,1,.49-0.59Z" transform="translate(-16.16 -4.31)"/></svg>
