<svg id="Lager_1" data-name="Lager 1" xmlns="http://www.w3.org/2000/svg" viewBox="0 0 61.71 61.71"><defs><style>.cls-1{fill:#001b48;}</style></defs><title>dep_message_blue</title><path class="cls-1" d="M205.51,182.39v41.14a10.7,10.7,0,0,1-2.73,6.59l-7.39,7.39a10.7,10.7,0,0,1-6.59,2.73H147.65a3.84,3.84,0,0,1-3.86-3.86v-54a3.84,3.84,0,0,1,3.86-3.86h54A3.84,3.84,0,0,1,205.51,182.39ZM188.8,219.67h11.57v-36H148.94V235.1h36V223.53A3.84,3.84,0,0,1,188.8,219.67ZM200,224.82h-10v10a4.38,4.38,0,0,0,1.65-.88l7.43-7.43A4.39,4.39,0,0,0,200,224.82Z" transform="translate(-143.8 -178.53)"/></svg>