<svg id="Lager_1" data-name="Lager 1" xmlns="http://www.w3.org/2000/svg" viewBox="0 0 29.83 23.44"><defs><style>.cls-1{fill:#001b48;}</style></defs><title>message_blue</title><path class="cls-1" d="M42.45,11.58a4.4,4.4,0,0,1-.82,2.51,7.91,7.91,0,0,1-2,2l-7.79,5.41-0.71.51-0.9.63q-0.36.24-.87,0.54a5,5,0,0,1-1,.45,2.64,2.64,0,0,1-.83.15h0a2.64,2.64,0,0,1-.83-0.15,5,5,0,0,1-1-.45q-0.51-.3-0.87-0.54L24,22.06l-0.71-.51-4.36-3-3.41-2.37a8.25,8.25,0,0,1-1.95-1.92,3.89,3.89,0,0,1-.92-2.27,3.36,3.36,0,0,1,.69-2.16,2.38,2.38,0,0,1,2-.87h24.5A2.68,2.68,0,0,1,42.45,11.58Zm0,4.89V29.69a2.67,2.67,0,0,1-2.66,2.66H15.28a2.67,2.67,0,0,1-2.66-2.66V16.48a8.82,8.82,0,0,0,1.68,1.45q6,4.09,8.27,5.74,0.95,0.7,1.54,1.09a9.49,9.49,0,0,0,1.57.8,4.8,4.8,0,0,0,1.83.41h0a4.8,4.8,0,0,0,1.83-.41,9.53,9.53,0,0,0,1.57-.8q0.59-.39,1.54-1.09,2.83-2,8.29-5.74A9.14,9.14,0,0,0,42.45,16.48Z" transform="translate(-12.62 -8.92)"/></svg>
